<?xml version="1.0" encoding="UTF-8"?>
<svg xmlns="http://www.w3.org/2000/svg" xmlns:xlink="http://www.w3.org/1999/xlink" viewBox="0 0 250 250" width="250px" height="250px">
<g id="surface58309880">
<path style=" stroke:none;fill-rule:nonzero;fill:rgb(100%,100%,100%);fill-opacity:1;" d="M 125 10 C 61.582031 10 10 61.582031 10 125 C 10 188.417969 61.582031 240 125 240 C 188.417969 240 240 188.417969 240 125 C 240 98.183594 230.566406 72.011719 213.4375 51.40625 L 207.5 44.375 L 169.21875 71.875 L 180.78125 88.125 L 203.59375 71.71875 C 214.179688 87.382812 220 105.957031 220 125 C 220 177.382812 177.382812 220 125 220 C 72.617188 220 30 177.382812 30 125 C 30 72.617188 72.617188 30 125 30 C 142.65625 30 160.3125 35.019531 175 44.21875 L 191.5625 31.09375 C 172.65625 17.441406 148.984375 10 125 10 Z M 125 80 C 100.195312 80 80 100.195312 80 125 C 80 149.824219 100.195312 170 125 170 C 149.824219 170 170 149.824219 170 125 C 170 100.195312 149.824219 80 125 80 Z M 125 110 C 133.28125 110 140 116.71875 140 125 C 140 133.28125 133.28125 140 125 140 C 116.71875 140 110 133.28125 110 125 C 110 116.71875 116.71875 110 125 110 Z M 125 110 "/>
</g>
</svg>
