<?xml version="1.0" encoding="UTF-8"?>
<svg xmlns="http://www.w3.org/2000/svg" xmlns:xlink="http://www.w3.org/1999/xlink" viewBox="0 0 48 48" width="48px" height="48px">
<g id="surface61068218">
<path style=" stroke:none;fill-rule:nonzero;fill:rgb(100%,100%,100%);fill-opacity:1;" d="M 22 0 L 22 6 L 26 6 L 26 0 Z M 8.445312 5.617188 L 5.617188 8.445312 L 9.859375 12.6875 L 12.6875 9.859375 Z M 39.554688 5.617188 L 35.3125 9.859375 L 38.140625 12.6875 L 42.382812 8.445312 Z M 24 10 C 16.269531 10 10 16.269531 10 24 C 10 31.730469 16.269531 38 24 38 C 31.730469 38 38 31.730469 38 24 C 38 16.269531 31.730469 10 24 10 Z M 0 22 L 0 26 L 6 26 L 6 22 Z M 42 22 L 42 26 L 48 26 L 48 22 Z M 9.859375 35.3125 L 5.617188 39.554688 L 8.445312 42.382812 L 12.6875 38.140625 Z M 38.140625 35.3125 L 35.3125 38.140625 L 39.554688 42.382812 L 42.382812 39.554688 Z M 22 42 L 22 48 L 26 48 L 26 42 Z M 22 42 "/>
</g>
</svg>
