<?xml version="1.0" encoding="UTF-8"?>
<svg xmlns="http://www.w3.org/2000/svg" xmlns:xlink="http://www.w3.org/1999/xlink" viewBox="0 0 96 96" width="96px" height="96px">
<g id="surface59374140">
<path style=" stroke:none;fill-rule:nonzero;fill:rgb(100%,100%,100%);fill-opacity:1;" d="M 45.675781 86.898438 C 47.140625 87.625 48.859375 87.625 50.324219 86.898438 C 82.71875 70.917969 81.996094 44 81.996094 44 L 81.996094 24 C 81.996094 21.789062 81.996094 22 81.996094 22 C 81.996094 22 71.609375 21 66.886719 18 C 62.164062 15 55.554688 12 48 12 C 40.445312 12 33.835938 15 29.113281 18 C 24.390625 21 14.003906 22 14.003906 22 C 14.003906 22 14.003906 21.789062 14.003906 24 L 14.003906 44 C 14.003906 44 13.28125 70.917969 45.675781 86.898438 Z M 45.675781 86.898438 "/>
<path style=" stroke:none;fill-rule:nonzero;fill:rgb(100%,100%,100%);fill-opacity:1;" d="M 46 4 L 50 4 L 50 90 L 46 90 Z M 46 4 "/>
<path style=" stroke:none;fill-rule:nonzero;fill:rgb(100%,100%,100%);fill-opacity:1;" d="M 0 46 L 96 46 L 96 50 L 0 50 Z M 0 46 "/>
</g>
</svg>
