<?xml version="1.0" encoding="UTF-8"?>
<svg xmlns="http://www.w3.org/2000/svg" xmlns:xlink="http://www.w3.org/1999/xlink" viewBox="0 0 144 144" width="144px" height="144px">
<g id="surface58672579">
<path style=" stroke:none;fill-rule:nonzero;fill:rgb(100%,100%,100%);fill-opacity:1;" d="M 55.5 9 C 33.132812 9 15 27.132812 15 49.5 C 15 55.675781 16.421875 61.507812 18.898438 66.742188 C 18.859375 66.835938 18.808594 66.90625 18.777344 67.007812 L 9.277344 88.625 C 8.101562 91.300781 10.929688 93.976562 13.53125 92.648438 L 32.640625 82.921875 C 39.148438 87.382812 47.011719 90 55.5 90 C 77.867188 90 96 71.867188 96 49.5 C 96 27.132812 77.867188 9 55.5 9 Z M 55.5 9 "/>
<path style=" stroke:none;fill-rule:nonzero;fill:rgb(40.000001%,40.000001%,40.000001%);fill-opacity:1;" d="M 134.726562 131.1875 L 123.757812 106.226562 C 127.101562 100.066406 129 93.003906 129 85.5 C 129 61.476562 109.523438 42 85.5 42 C 61.476562 42 42 61.476562 42 85.5 C 42 109.523438 61.476562 129 85.5 129 C 93.339844 129 100.675781 126.898438 107.023438 123.269531 L 130.46875 135.207031 C 133.074219 136.53125 135.902344 133.859375 134.726562 131.1875 Z M 134.726562 131.1875 "/>
<path style=" stroke:none;fill-rule:nonzero;fill:rgb(100%,100%,100%);fill-opacity:1;" d="M 81.496094 95.246094 C 81.300781 94.730469 80.875 93.199219 80.875 91.6875 C 80.875 83.0625 89.75 82.734375 89.75 76.339844 C 89.75 72.3125 85.773438 72.0625 85.0625 72.0625 C 80.542969 72.0625 77.015625 74.644531 75.535156 75.949219 L 75.535156 67.015625 C 77.058594 66.105469 80.542969 64.285156 86.101562 64.285156 C 98.972656 64.285156 99.136719 73.132812 99.136719 75.03125 C 99.136719 85.242188 88.597656 86 88.597656 92.542969 C 88.597656 93.910156 89.089844 94.90625 89.308594 95.242188 L 81.496094 95.242188 Z M 85.828125 109.285156 C 83.378906 109.285156 80.789062 107.753906 80.789062 104.785156 C 80.789062 101.816406 83.480469 100.34375 85.828125 100.34375 C 88.179688 100.34375 90.789062 101.660156 90.789062 104.785156 C 90.789062 107.914062 88.28125 109.285156 85.828125 109.285156 Z M 85.828125 109.285156 "/>
</g>
</svg>
