<?xml version="1.0" ?><!DOCTYPE svg  PUBLIC '-//W3C//DTD SVG 1.1//EN'  'http://www.w3.org/Graphics/SVG/1.1/DTD/svg11.dtd'><svg height="512px" id="形状_1_1_" style="enable-background:new 0 0 512 512;" version="1.1" viewBox="0 0 512 512" width="512px" xml:space="preserve" xmlns="http://www.w3.org/2000/svg" xmlns:xlink="http://www.w3.org/1999/xlink"><g id="形状_1"><g><path d="M351.748,351.29c-4.15,1.533-8.223,2.536-12.33,4.152    c-6.144,2.416-18.532,5.735-25.381,7.204c-8.818,1.891-17.205,4.289-26.445,6.139c-9.529,1.907-18.018,2.934-27.912,4.671    c-9.151,1.608-19.985,2.164-29.749,2.836c-10.197,0.702-20.78,1.151-31.815,1.151h-2.3c-39.283,0-76.76-6.178-102.989-19.296    c-25.229-12.619-48.813-36.007-48.813-73.473v-3.45c0-17.625,5.414-31.166,10.504-43.93c2.234-5.603,6.447-12.744,9.659-17.558    c2.007-3.008,3.637-5.197,5.744-8.056c1.884-2.555,4.819-5.308,6.293-7.508v-12.267c-6.112,4.093-12.536,12.145-17.721,17.547    c-5.883,6.129-10.245,12.965-15.093,20.174c-7.197,10.699-17.403,35.597-17.403,53.13v12.268c0,21.642,8.584,40.881,17.325,53.976    c9.894,14.826,23.076,23.597,38.182,33.12c11.918,7.514,35.985,15.849,52.242,19.06c20.041,3.957,40.267,6.93,64.371,6.93h11.883    c74.079,0,149.344-21.509,197.804-47.15v-34.884c-13.112,6.938-29.256,16.099-44.393,20.774    C360.192,347.846,355.119,350.043,351.748,351.29z M483.935,191.294c-0.722-4.01-2.175-9.129-3.562-12.54    c-3.463-8.516-6.339-14.273-11.516-21.068c-9.574-12.572-20.979-21.657-35.24-29.545c-26.18-14.479-66.028-23.251-106.699-23.251    h-3.45c-41.966,0-76.674,6.979-109.479,16.255c-8.664,2.45-15.711,4.979-23.781,7.653c-6.681,2.213-16.462,5.919-22.509,8.925    c-7.168,3.563-14.317,6.624-21.334,10.1c-3.717,1.843-17.99,10.575-20.316,11.118v9.199c3.163-0.736,14.813-7.172,19.291-9.077    c6.213-2.642,14.012-6.564,20.269-8.48c2.837-0.869,7.526-2.644,10.341-3.843c3.417-1.457,6.988-2.348,10.619-3.564    c6.921-2.32,14.658-4.938,21.978-6.772c15.769-3.954,29.664-7.164,46.914-10.205c14.698-2.59,35.37-5.208,51.91-5.208h17.25    c33.585,0,69.945,7.712,91.486,19.682c13.07,7.264,21.853,13.375,30.867,24.717c6.794,8.548,15.265,25.598,15.265,40.703v6.517    c0,15.921-8.271,33.042-15.175,42.326c-4.187,5.629-8.335,10.645-13.474,15.276c-2.498,2.252-14.164,11.512-16.97,12.165v25.3    c5.404-0.448,21.664-10.918,25.843-14.023c7.699-5.727,14.597-12.314,20.473-19.778c6.683-8.486,10.287-14.706,15.147-25.104    c2.201-4.706,3.473-9.541,5.076-14.858c0.65-2.158,2.802-17.399,2.847-17.47v-11.117    C485.874,205.12,484.221,192.887,483.935,191.294z M362.951,268.575v-10.351c0-12.192-4.36-23.934-9.688-30.945    c-5.058-6.655-15.318-14.288-26.729-14.288h-7.283c-12.057,0-22.967,7.568-28.853,14.081c-6.01,6.65-11.014,19.314-11.014,31.919    v4.601c0,26.355,16.17,45.616,42.55,45.616h4.983c7.985,0,13.688-1.934,19.402-4.362c6.223-2.645,9.387-7.148,14.046-10.307    l-15.049-14.081c-2.964,4.427-11.176,8.817-18.783,8.817h-4.217c-9.978,0-19.166-8.483-19.166-18.017v-2.684H362.951z     M303.151,249.791c0-8.64,8.424-17.25,17.249-17.25h1.917c10.023,0,16.868,8.5,16.868,18.017v1.917h-36.034V249.791z     M214.599,307.675v-65.551c0-15.554-10.585-27.601-26.067-27.601h-50.601v93.151h23.384V233.69h21.083    c4.646,0,8.434,3.597,8.434,8.051v65.934H214.599z M231.849,188.841v91.233c0,15.743,10.236,27.601,25.684,27.601h16.101v-19.934    H261.75c-3.52,0-6.133-4.073-6.133-7.667V233.69h18.017v-19.167h-18.017v-25.683H231.849z M400.519,306.909V175.808h-23.767    v109.251c0,6.363,3.854,12.134,7.181,15.436c1.787,1.772,4.609,3.235,7.226,4.275C394.82,306.227,396.713,306.022,400.519,306.909    z M116.848,308.825v-94.302l-23.679,0.003l-0.565,21.846l0.093,46.386C92.697,298.472,101.909,308.492,116.848,308.825z     M116.848,178.873H93.081v22.618h23.767V178.873z M423.639,186.133h0.969c0.581,0,1.024,0.116,1.326,0.353    c0.438,0.319,1.012,1.115,1.726,2.381l0.909,1.614h2.02l-1.249-2.003c-0.599-0.95-1.103-1.626-1.515-2.031    c-0.216-0.21-0.51-0.392-0.87-0.542c0.882-0.069,1.593-0.379,2.127-0.934c0.534-0.556,0.8-1.206,0.8-1.955    c0-0.529-0.159-1.028-0.479-1.502c-0.321-0.47-0.748-0.801-1.286-0.99s-1.408-0.28-2.612-0.28h-3.518v10.237h1.652V186.133z     M423.639,181.63h1.878c0.809,0,1.36,0.056,1.661,0.177c0.298,0.116,0.53,0.297,0.697,0.533c0.168,0.241,0.255,0.512,0.255,0.813    c0,0.474-0.177,0.853-0.526,1.137c-0.349,0.284-1.002,0.431-1.958,0.431h-2.007V181.63z M421.427,193.477    c1.507,0.839,3.086,1.257,4.735,1.257c1.648,0,3.224-0.418,4.735-1.257c1.507-0.835,2.683-2.011,3.517-3.526    c0.839-1.511,1.258-3.086,1.258-4.727c0-1.656-0.427-3.25-1.274-4.773c-0.849-1.528-2.036-2.699-3.557-3.521    c-1.523-0.817-3.082-1.227-4.679-1.227c-1.598,0-3.16,0.409-4.679,1.227c-1.524,0.822-2.713,1.993-3.565,3.521    c-0.853,1.523-1.278,3.117-1.278,4.773c0,1.641,0.418,3.216,1.261,4.727C418.741,191.466,419.915,192.642,421.427,193.477z     M418.216,185.224c0-1.381,0.356-2.707,1.071-3.981c0.715-1.27,1.704-2.251,2.971-2.936c1.265-0.685,2.564-1.029,3.904-1.029    c1.326,0,2.626,0.345,3.896,1.029s2.26,1.666,2.971,2.936c0.71,1.274,1.063,2.601,1.063,3.981c0,1.369-0.349,2.683-1.046,3.939    s-1.675,2.238-2.936,2.94c-1.261,0.701-2.578,1.055-3.947,1.055c-1.373,0-2.686-0.354-3.947-1.055    c-1.262-0.702-2.242-1.684-2.945-2.94C418.568,187.906,418.216,186.593,418.216,185.224z" style="fill-rule:evenodd;clip-rule:evenodd;fill:#0072BB;"/></g></g></svg>