<?xml version="1.0" encoding="UTF-8"?>
<svg xmlns="http://www.w3.org/2000/svg" xmlns:xlink="http://www.w3.org/1999/xlink" viewBox="0 0 100 100" width="100px" height="100px">
<g id="surface61071862">
<path style=" stroke:none;fill-rule:nonzero;fill:rgb(100%,100%,100%);fill-opacity:1;" d="M 50 4 C 41.417969 4 33.238281 6.402344 26.453125 10.601562 C 26.015625 10.746094 25.257812 11.324219 24.570312 11.933594 C 30.660156 7.09375 44.742188 16.785156 48.855469 19.671875 C 49.546875 20.15625 50.457031 20.15625 51.148438 19.671875 C 55.261719 16.785156 69.34375 7.09375 75.433594 11.933594 C 74.746094 11.324219 73.988281 10.746094 73.550781 10.601562 C 66.765625 6.402344 58.582031 4 50 4 Z M 22 16 C 18.804688 16 16.472656 18.601562 16.472656 18.601562 C 8.886719 26.800781 4.101562 37.800781 4.101562 50 C 4.101562 75.398438 24.65625 96 50 96 C 63.371094 96 75.542969 90.199219 83.925781 81 C 83.925781 81 82.929688 75 76.742188 66.199219 C 69.824219 55.765625 55.808594 42.625 51.324219 38.589844 C 50.558594 37.902344 49.417969 37.90625 48.65625 38.601562 C 45.277344 41.695312 36.554688 50.355469 34.632812 52.601562 C 30.042969 57.402344 17.269531 72.597656 16.472656 81.199219 C 16.472656 81.199219 13.675781 74.402344 19.863281 58.800781 C 23.714844 49.429688 35.671875 35.496094 41.46875 29.417969 C 42.238281 28.613281 42.21875 27.339844 41.40625 26.574219 C 39.484375 24.777344 35.011719 21.625 30.976562 19.199219 C 28.183594 17.398438 24.992188 16.199219 22 16 Z M 77.378906 16 C 76.074219 16 67.589844 18.6875 58.660156 26.597656 C 57.816406 27.34375 57.78125 28.652344 58.566406 29.460938 C 61.800781 32.804688 70.644531 41.363281 75.945312 49.800781 C 82.53125 60.601562 86.519531 69.199219 84.125 81 C 91.507812 72.800781 96.101562 62 96.101562 50 C 95.902344 38 91.3125 27 83.726562 18.800781 C 83.527344 18.601562 83.328125 18.398438 83.128906 18.199219 C 81.53125 16.398438 79.175781 16 77.378906 16 Z M 77.378906 16 "/>
</g>
</svg>
